<?xml version="1.0" standalone="no"?>
<!DOCTYPE svg PUBLIC "-//W3C//DTD SVG 20010904//EN"
 "http://www.w3.org/TR/2001/REC-SVG-20010904/DTD/svg10.dtd">
<svg version="1.0" xmlns="http://www.w3.org/2000/svg"
 width="1459.000000pt" height="323.000000pt" viewBox="0 0 1459.000000 323.000000"
 preserveAspectRatio="xMidYMid meet">

<g transform="translate(0.000000,323.000000) scale(0.100000,-0.100000)"
fill="#000000" stroke="none">
<path d="M1347 2050 c-317 -550 -577 -1002 -577 -1005 0 -3 102 -5 228 -5
l227 1 347 602 c191 331 350 602 353 602 6 0 935 -1601 935 -1611 0 -2 -525
-4 -1167 -4 l-1168 -1 -116 -202 -117 -202 820 -3 c451 -1 1185 -1 1632 0
l813 3 -809 1400 c-445 770 -812 1405 -816 1412 -4 7 -245 -399 -585 -987z"/>
<path d="M6770 1711 l0 -708 41 -47 c57 -65 83 -76 179 -76 l80 0 0 75 0 75
-58 0 c-100 0 -92 -62 -92 713 l0 677 -75 0 -75 0 0 -709z"/>
<path d="M8430 2340 l0 -80 75 0 75 0 0 80 0 80 -75 0 -75 0 0 -80z"/>
<path d="M4660 1570 l0 -690 535 0 535 0 0 75 0 75 -455 0 -455 0 0 230 0 230
300 0 301 0 -3 78 -3 77 -297 3 -298 2 0 230 0 230 455 0 455 0 0 75 0 75
-535 0 -535 0 0 -690z"/>
<path d="M11732 1867 l-92 -92 0 -356 0 -355 53 -50 c28 -28 71 -67 95 -87
l42 -37 268 0 268 0 92 94 92 93 0 341 0 341 -88 98 -88 98 -275 3 -274 2 -93
-93z m622 -111 l46 -54 0 -283 0 -283 -52 -53 -52 -53 -201 0 -200 0 -57 56
-58 56 0 281 0 281 52 53 52 53 212 0 212 0 46 -54z"/>
<path d="M8430 1415 l0 -535 75 0 75 0 0 535 0 535 -75 0 -75 0 0 -535z"/>
<path d="M9610 1916 c0 -19 5 -47 11 -63 5 -15 103 -118 217 -229 l207 -202
-214 -215 -214 -215 -5 -56 -4 -56 81 0 81 0 0 28 c0 24 31 59 193 215 l194
186 196 -190 c149 -144 197 -197 197 -215 0 -23 2 -24 75 -24 l75 0 0 52 0 53
-217 218 -218 218 218 215 217 216 0 49 0 49 -75 0 c-69 0 -75 -2 -75 -21 0
-13 -56 -74 -162 -178 -90 -87 -179 -172 -199 -189 l-36 -31 -192 185 c-144
140 -191 192 -191 210 0 23 -2 24 -80 24 l-80 0 0 -34z"/>
<path d="M13460 1875 l0 -75 35 0 c25 0 44 -8 60 -25 l25 -24 0 -436 0 -435
75 0 75 0 0 334 0 334 134 126 134 126 58 0 c58 0 60 -1 117 -56 31 -31 57
-64 57 -75 0 -17 8 -19 80 -19 l80 0 0 48 c0 48 -1 48 -105 150 l-105 102
-126 0 -127 0 -97 -96 -97 -95 -5 44 c-6 53 -29 86 -83 121 -33 22 -50 26
-112 26 l-73 0 0 -75z"/>
</g>
</svg>
